<svg width="18" height="16" viewBox="0 0 18 16" fill="none" xmlns="http://www.w3.org/2000/svg">
<path d="M17.7071 8.70711C18.0976 8.31658 18.0976 7.68342 17.7071 7.29289L11.3431 0.928932C10.9526 0.538407 10.3195 0.538408 9.92893 0.928932C9.53841 1.31946 9.53841 1.95262 9.92893 2.34315L15.5858 8L9.92893 13.6569C9.53841 14.0474 9.53841 14.6805 9.92893 15.0711C10.3195 15.4616 10.9526 15.4616 11.3431 15.0711L17.7071 8.70711ZM7 9L17 9L17 7L7 7L7 9Z" fill="#FFF0DA"/>
<line x1="6" y1="2" y2="2" stroke="#FFF0DA" stroke-width="2"/>
<line x1="1" y1="1" x2="1" y2="16" stroke="#FFF0DA" stroke-width="2"/>
<line y1="15" x2="6" y2="15" stroke="#FFF0DA" stroke-width="2"/>
</svg>
