<svg width="50" height="50" viewBox="0 0 50 50" fill="none" xmlns="http://www.w3.org/2000/svg">
<path d="M25.0001 12.4792L40.6876 39.5834H9.31259L25.0001 12.4792ZM5.70842 37.5C4.10426 40.2709 6.10426 43.75 9.31259 43.75H40.6876C43.8959 43.75 45.8959 40.2709 44.2918 37.5L28.6043 10.3959C27.0001 7.62504 23.0001 7.62504 21.3959 10.3959L5.70842 37.5ZM22.9168 22.9167V27.0834C22.9168 28.2292 23.8543 29.1667 25.0001 29.1667C26.1459 29.1667 27.0834 28.2292 27.0834 27.0834V22.9167C27.0834 21.7709 26.1459 20.8334 25.0001 20.8334C23.8543 20.8334 22.9168 21.7709 22.9168 22.9167ZM22.9168 33.3334H27.0834V37.5H22.9168V33.3334Z" fill="#963A3A"/>
</svg>
